<svg width="94" height="94" viewBox="0 0 94 94" fill="none" xmlns="http://www.w3.org/2000/svg">
<path d="M45.79 0.76405C46.0373 -0.254689 47.4861 -0.254687 47.7335 0.764052L54.0924 26.9538C54.2522 27.6119 55.0061 27.9242 55.5845 27.5719L78.5999 13.5493C79.4951 13.0039 80.5196 14.0283 79.9741 14.9236L65.9516 37.939C65.5992 38.5173 65.9115 39.2713 66.5696 39.4311L92.7594 45.79C93.7781 46.0373 93.7781 47.4861 92.7594 47.7335L66.5696 54.0924C65.9115 54.2522 65.5992 55.0061 65.9516 55.5845L79.9741 78.5999C80.5196 79.4951 79.4951 80.5196 78.5999 79.9742L55.5845 65.9516C55.0061 65.5993 54.2522 65.9116 54.0924 66.5696L47.7335 92.7594C47.4861 93.7782 46.0373 93.7782 45.79 92.7594L39.4311 66.5696C39.2713 65.9116 38.5173 65.5993 37.939 65.9516L14.9236 79.9742C14.0283 80.5196 13.0038 79.4951 13.5493 78.5999L27.5719 55.5845C27.9242 55.0061 27.6119 54.2522 26.9538 54.0924L0.764034 47.7335C-0.254705 47.4861 -0.254702 46.0373 0.764037 45.79L26.9538 39.4311C27.6119 39.2713 27.9242 38.5173 27.5719 37.939L13.5493 14.9236C13.0038 14.0283 14.0283 13.0039 14.9236 13.5493L37.939 27.5719C38.5173 27.9242 39.2713 27.6119 39.4311 26.9538L45.79 0.76405Z" fill="#333333"/>
</svg>
